# xmcd
#
# Track frame offsets:
#	150
#	10665
#	22828
#	32338
#	42026
#	54532
#	67604
#	80625
#	91871
#	100384
#
# Disc length: 1506 seconds
#
# Revision: 1
# Processed by: cddbd v1.5.2PL0 Copyright (c) Steve Scherf et al.
# Submitted via: audiograbber 1.83.01
#
DISCID=6205e00a
DTITLE=Porter Wagoner - Highway Headin' South
DYEAR=1974
DGENRE=Country
TTITLE0=Life Rides The Train
TTITLE1=Freida
TTITLE2=Highway Headin' South
TTITLE3=Lonelyville
TTITLE4=Last Chance For Happiness
TTITLE5=Not A Cloud In The Sky
TTITLE6=Holding Lonely Hands
TTITLE7=An Old Memory Gets In My Eyes
TTITLE8=Lonely Without You
TTITLE9=I'll Start Tomorrow
EXTD=
EXTT0=
EXTT1=
EXTT2=
EXTT3=
EXTT4=
EXTT5=
EXTT6=
EXTT7=
EXTT8=
EXTT9=
PLAYORDER=
